<svg class="h-5 w-5" viewBox="0 0 24 24" fill="none" xmlns="http://www.w3.org/2000/svg"><g clip-path="url(#clip0_1027_1516)"><path d="M24 12.0733C24 5.40541 18.6274 0 12 0C5.37258 0 0 5.40541 0 12.0733C0 18.0994 4.3882 23.0943 10.125 24V15.5633H7.07812V12.0733H10.125V9.41343C10.125 6.38755 11.9166 4.71615 14.6576 4.71615C15.9701 4.71615 17.3438 4.95195 17.3438 4.95195V7.92313H15.8306C14.34 7.92313 13.875 8.85386 13.875 9.80958V12.0733H17.2031L16.6711 15.5633H13.875V24C19.6118 23.0943 24 18.0994 24 12.0733Z" fill="#1877F2"></path><path d="M16.6711 15.4688L17.2031 12H13.875V9.75C13.875 8.80102 14.34 7.875 15.8306 7.875H17.3438V4.92188C17.3438 4.92188 15.9705 4.6875 14.6576 4.6875C11.9166 4.6875 10.125 6.34875 10.125 9.35625V12H7.07812V15.4688H10.125V23.8542C11.3674 24.0486 12.6326 24.0486 13.875 23.8542V15.4688H16.6711Z" fill="white"></path></g><defs><clipPath id="clip0_1027_1516"><rect width="24" height="24" fill="white"></rect></clipPath></defs></svg>