<svg class="h-5 w-5" viewBox="0 0 20 20" fill="none" xmlns="http://www.w3.org/2000/svg"><rect width="20" height="20" rx="6.85714" fill="url(#paint0_radial_2157_21760)"></rect><rect width="20" height="20" rx="6.85714" fill="url(#paint1_radial_2157_21760)"></rect><rect width="20" height="20" rx="6.85714" fill="url(#paint2_radial_2157_21760)"></rect><path d="M15 6.07171C15 6.66344 14.5203 7.14314 13.9286 7.14314C13.3368 7.14314 12.8571 6.66344 12.8571 6.07171C12.8571 5.47997 13.3368 5.00028 13.9286 5.00028C14.5203 5.00028 15 5.47997 15 6.07171Z" fill="white"></path><path fill-rule="evenodd" clip-rule="evenodd" d="M10 13.5717C11.9724 13.5717 13.5714 11.9727 13.5714 10.0003C13.5714 8.02783 11.9724 6.42885 10 6.42885C8.02756 6.42885 6.42858 8.02783 6.42858 10.0003C6.42858 11.9727 8.02756 13.5717 10 13.5717ZM10 12.1431C11.1835 12.1431 12.1429 11.1837 12.1429 10.0003C12.1429 8.81681 11.1835 7.85742 10 7.85742C8.81654 7.85742 7.85715 8.81681 7.85715 10.0003C7.85715 11.1837 8.81654 12.1431 10 12.1431Z" fill="white"></path><path fill-rule="evenodd" clip-rule="evenodd" d="M2.85715 9.71456C2.85715 7.31434 2.85715 6.11423 3.32426 5.19746C3.73515 4.39105 4.39078 3.73542 5.19719 3.32454C6.11395 2.85742 7.31406 2.85742 9.71429 2.85742H10.2857C12.6859 2.85742 13.8861 2.85742 14.8028 3.32454C15.6092 3.73542 16.2649 4.39105 16.6757 5.19746C17.1429 6.11423 17.1429 7.31434 17.1429 9.71456V10.286C17.1429 12.6862 17.1429 13.8863 16.6757 14.8031C16.2649 15.6095 15.6092 16.2651 14.8028 16.676C13.8861 17.1431 12.6859 17.1431 10.2857 17.1431H9.71429C7.31406 17.1431 6.11395 17.1431 5.19719 16.676C4.39078 16.2651 3.73515 15.6095 3.32426 14.8031C2.85715 13.8863 2.85715 12.6862 2.85715 10.286V9.71456ZM9.71429 4.28599H10.2857C11.5094 4.28599 12.3413 4.2871 12.9842 4.33964C13.6105 4.39081 13.9308 4.48356 14.1543 4.5974C14.6919 4.87133 15.129 5.30841 15.4029 5.84602C15.5167 6.06945 15.6095 6.38974 15.6606 7.01605C15.7132 7.65903 15.7143 8.49088 15.7143 9.71456V10.286C15.7143 11.5097 15.7132 12.3415 15.6606 12.9845C15.6095 13.6108 15.5167 13.9311 15.4029 14.1545C15.129 14.6921 14.6919 15.1292 14.1543 15.4032C13.9308 15.517 13.6105 15.6097 12.9842 15.6609C12.3413 15.7135 11.5094 15.7146 10.2857 15.7146H9.71429C8.4906 15.7146 7.65876 15.7135 7.01577 15.6609C6.38946 15.6097 6.06917 15.517 5.84575 15.4032C5.30814 15.1292 4.87105 14.6921 4.59713 14.1545C4.48329 13.9311 4.39053 13.6108 4.33936 12.9845C4.28683 12.3415 4.28572 11.5097 4.28572 10.286V9.71456C4.28572 8.49088 4.28683 7.65903 4.33936 7.01605C4.39053 6.38974 4.48329 6.06945 4.59713 5.84602C4.87105 5.30841 5.30814 4.87133 5.84575 4.5974C6.06917 4.48356 6.38946 4.39081 7.01577 4.33964C7.65876 4.2871 8.4906 4.28599 9.71429 4.28599Z" fill="white"></path><defs><radialGradient id="paint0_radial_2157_21760" cx="0" cy="0" r="1" gradientUnits="userSpaceOnUse" gradientTransform="translate(7.14286 15) rotate(-55.3758) scale(18.2283)"><stop stop-color="#B13589"></stop><stop offset="0.79309" stop-color="#C62F94"></stop><stop offset="1" stop-color="#8A3AC8"></stop></radialGradient><radialGradient id="paint1_radial_2157_21760" cx="0" cy="0" r="1" gradientUnits="userSpaceOnUse" gradientTransform="translate(6.42857 20.7143) rotate(-65.1363) scale(16.1387)"><stop stop-color="#E0E8B7"></stop><stop offset="0.444662" stop-color="#FB8A2E"></stop><stop offset="0.71474" stop-color="#E2425C"></stop><stop offset="1" stop-color="#E2425C" stop-opacity="0"></stop></radialGradient><radialGradient id="paint2_radial_2157_21760" cx="0" cy="0" r="1" gradientUnits="userSpaceOnUse" gradientTransform="translate(-1.07143 0.714286) rotate(-8.1301) scale(27.7792 5.94168)"><stop offset="0.156701" stop-color="#406ADC"></stop><stop offset="0.467799" stop-color="#6A45BE"></stop><stop offset="1" stop-color="#6A45BE" stop-opacity="0"></stop></radialGradient></defs></svg>