<?xml version="1.0" encoding="utf-8"?><!-- Uploaded to: SVG Repo, www.svgrepo.com, Generator: SVG Repo Mixer Tools -->
<svg width="800px" height="800px" viewBox="0 0 24 24" fill="none" xmlns="http://www.w3.org/2000/svg">
<path fill-rule="evenodd" clip-rule="evenodd" d="M4.82051 3.53846C4.11246 3.53846 3.53846 4.11246 3.53846 4.82051V7.12821H6.61539V3.53846H4.82051ZM8.15385 3.53846V7.12821H11.2308V4.82051C11.2308 4.11246 10.6568 3.53846 9.94872 3.53846H8.15385ZM11.2308 8.66667H3.53846V13.2821H11.2308V8.66667ZM11.2308 14.8205H8.15385V18.4103H11.2308V14.8205ZM11.3369 19.9487H4.82051C3.26279 19.9487 2 18.6859 2 17.1282V4.82051C2 3.26279 3.26279 2 4.82051 2H9.94872C11.2398 2 12.3282 2.86743 12.6631 4.05128H19.1795C20.7372 4.05128 22 5.31407 22 6.8718V19.1795C22 20.7372 20.7372 22 19.1795 22H14.0513C12.7602 22 11.6718 21.1326 11.3369 19.9487ZM12.7692 5.58974V9.17949H15.8462V5.58974H12.7692ZM17.3846 5.58974V9.17949H20.4615V6.8718C20.4615 6.16374 19.8875 5.58974 19.1795 5.58974H17.3846ZM20.4615 10.7179H12.7692V15.3333H20.4615V10.7179ZM20.4615 16.8718H17.3846V20.4615H19.1795C19.8875 20.4615 20.4615 19.8875 20.4615 19.1795V16.8718ZM15.8462 20.4615V16.8718H12.7692V19.1795C12.7692 19.8875 13.3432 20.4615 14.0513 20.4615H15.8462ZM6.61539 18.4103V14.8205H3.53846V17.1282C3.53846 17.8363 4.11246 18.4103 4.82051 18.4103H6.61539Z" fill="#030D45"/>
</svg>