<svg width="30" height="26" class="undefined" viewBox="0 0 30 26" fill="none" xmlns="http://www.w3.org/2000/svg"><path d="M24.3628 15.5985C24.146 13.2632 24.1958 10.4077 23.0272 8.16241L23.4405 7.92503C23.6892 8.1229 23.983 8.27164 24.313 8.347C25.4949 8.61758 26.6735 7.87457 26.9451 6.688C27.2167 5.50144 26.4783 4.32053 25.2964 4.04995C24.1141 3.77937 22.9359 4.52205 22.6643 5.70861C22.5886 6.03994 22.5939 6.37028 22.6633 6.68103L22.2081 6.94364C21.9346 6.62493 21.6218 6.32779 21.2629 6.05721C19.8091 4.84907 17.8779 4.13892 17.1823 4.02903C17.1216 4.01741 17.0615 4.00679 17.0014 3.9965L16.4815 3.92545C16.4211 3.91914 16.36 3.9135 16.2986 3.90819C16.2265 3.90221 16.1545 3.89723 16.0828 3.89258C15.8251 3.1841 15.1761 2.22197 15.022 2.23724C14.8889 2.25052 14.6542 2.9766 14.032 3.58183C13.9102 3.70036 13.704 3.64724 13.6552 3.48422C13.5755 3.21896 13.4138 2.94506 13.3441 2.9517C13.1814 2.96764 13.1685 3.73721 11.5175 4.76109C9.90528 5.18173 8.77915 5.92607 7.98102 6.85932L7.47473 6.56716C7.54412 6.25641 7.54943 5.92607 7.47373 5.59474C7.20216 4.40817 6.0239 3.66583 4.84165 3.93607C3.65974 4.20665 2.92138 5.38757 3.19295 6.57413C3.46452 7.76069 4.64278 8.50337 5.82503 8.23312C6.15537 8.15776 6.44885 8.00902 6.69752 7.81115L7.16165 8.07775C5.93592 10.4134 5.98173 13.3954 5.62616 15.5982C4.90938 20.0386 8.96706 22.7232 14.87 22.7232C21.2045 22.7232 24.7658 19.938 24.3628 15.5982V15.5985Z" fill="#823DFF"></path><path d="M7.50955 4.19415C9.53739 2.35156 12.1413 1.34295 14.9005 1.34295C17.6597 1.34295 20.4034 2.40701 22.4538 4.34521C22.6679 4.07297 22.9265 3.84091 23.216 3.65831C22.1546 2.6414 20.9336 1.83697 19.582 1.26527C18.0986 0.638122 16.5236 0.320068 14.9002 0.320068C13.2767 0.320068 11.7017 0.638122 10.2187 1.26527C8.91722 1.81572 7.73663 2.58297 6.70312 3.54709C7.0069 3.71209 7.2808 3.93121 7.50922 4.19415H7.50955Z" fill="#823DFF"></path><path d="M4.10814 10.1851C4.19911 9.72689 4.3183 9.2767 4.46604 8.83647C4.1347 8.73024 3.82561 8.5649 3.55371 8.3501C3.36779 8.87698 3.22005 9.41415 3.11016 9.95996C3.01487 9.9749 2.91959 9.99913 2.8253 10.0353C1.16498 10.6704 0 12.1578 0 13.8915C0 15.6252 1.16498 17.1122 2.8253 17.7476C3.6802 18.075 4.62573 17.4933 4.62573 16.6534V11.1293C4.62573 10.7352 4.41756 10.3979 4.10814 10.1847V10.1851Z" fill="#823DFF"></path><path d="M27.1775 10.0353C27.0155 9.97324 26.8505 9.94402 26.6888 9.94303C26.6071 9.54064 26.5052 9.14291 26.382 8.75049C26.0912 8.93076 25.7702 9.06223 25.4322 9.13527C25.5507 9.5257 25.6473 9.92344 25.722 10.3271C25.5102 10.5353 25.3768 10.8142 25.3768 11.1296V16.6537C25.3768 17.0089 25.5461 17.3174 25.806 17.5312C25.577 18.7702 25.059 19.8684 24.2629 20.802C23.5282 21.6635 22.5531 22.3926 21.3649 22.9693C19.6285 23.8119 17.9317 24.0815 17.431 24.1462V23.9165C17.431 23.6625 17.2232 23.455 16.9696 23.455H13.4637C12.9185 23.455 12.4727 23.9009 12.4727 24.446V24.7123C12.4727 25.2574 12.9185 25.7033 13.4637 25.7033H16.9696C17.2235 25.7033 17.431 25.4955 17.431 25.2418V25.113C17.8006 25.0728 19.7248 24.8252 21.7566 23.8454C23.071 23.2117 24.1557 22.4016 24.9813 21.4378C25.8665 20.4046 26.4504 19.1968 26.723 17.8396C26.8734 17.8346 27.0268 17.8057 27.1772 17.7483C28.8375 17.1129 30.0025 15.6255 30.0025 13.8921C30.0025 12.1588 28.8375 10.6714 27.1772 10.036L27.1775 10.0353Z" fill="#823DFF"></path><path d="M11.3917 13.7093H9.78022V12.0974H9.01562V16.0618H9.78022V14.3679H11.3917V16.0618H12.1563V12.0974H11.3917V13.7093Z" fill="white"></path><path d="M15.5916 15.4147H13.7215V14.362H15.4446V13.7149H13.7215V12.7445H15.5564V12.0974H12.9805V16.0618H15.5916V15.4147Z" fill="white"></path><path d="M18.7555 15.4029H17.0029V12.0916L16.2383 12.0972V16.0616H18.7555V15.4029Z" fill="white"></path><path d="M20.0615 14.6796H20.6909C20.9064 14.6796 21.1026 14.6464 21.2792 14.5797C21.4555 14.5129 21.6046 14.421 21.7261 14.3031C21.8476 14.1856 21.9416 14.0471 22.0083 13.8885C22.075 13.7298 22.1082 13.5581 22.1082 13.3739C22.1082 13.1896 22.0767 13.0309 22.0143 12.8739C21.9515 12.7172 21.8612 12.5817 21.7437 12.4682C21.6262 12.3546 21.4811 12.2643 21.3084 12.1976C21.1358 12.1309 20.9419 12.0977 20.7261 12.0977H19.2969V16.0617H20.0615V14.6796ZM20.0615 12.7563H20.7261C20.926 12.7563 21.079 12.8121 21.1849 12.924C21.2909 13.0359 21.3436 13.1856 21.3436 13.3739C21.3436 13.5737 21.2859 13.7318 21.17 13.8473C21.0541 13.9632 20.8944 14.0209 20.6906 14.0209H20.0611V12.7563H20.0615Z" fill="white"></path></svg>