<svg class="h-5 w-5" viewBox="0 0 20 20" fill="none" xmlns="http://www.w3.org/2000/svg"><path d="M14.3135 7.21939C15.5996 8.14204 17.1752 8.6849 18.8769 8.6849V5.39868C18.5548 5.39875 18.2336 5.36505 17.9186 5.29805V7.88478C16.217 7.88478 14.6416 7.34191 13.3552 6.41934V13.1256C13.3552 16.4804 10.6452 19.1998 7.30257 19.1998C6.05534 19.1998 4.89609 18.8214 3.93311 18.1724C5.0322 19.3002 6.56497 19.9998 8.26071 19.9998C11.6036 19.9998 14.3137 17.2804 14.3137 13.9255V7.21939H14.3135ZM15.4957 3.904C14.8385 3.18336 14.4069 2.25207 14.3135 1.22248V0.799805H13.4054C13.6339 2.10841 14.4137 3.2264 15.4957 3.904ZM6.04735 15.598C5.68012 15.1148 5.48167 14.5237 5.48255 13.9159C5.48255 12.3815 6.72206 11.1374 8.25127 11.1374C8.53627 11.1374 8.81955 11.1812 9.09115 11.2676V7.90798C8.77375 7.86433 8.45342 7.84579 8.13322 7.85259V10.4676C7.86142 10.3811 7.578 10.3372 7.29293 10.3375C5.76372 10.3375 4.52428 11.5814 4.52428 13.116C4.52428 14.201 5.14383 15.1404 6.04735 15.598Z" fill="#FF004F"></path><path d="M13.3554 6.41927C14.6419 7.34185 16.2172 7.88471 17.9188 7.88471V5.29799C16.969 5.09495 16.1281 4.59684 15.4959 3.904C14.4138 3.22633 13.6342 2.10834 13.4056 0.799805H11.0201V13.9253C11.0147 15.4555 9.77728 16.6945 8.25135 16.6945C7.35214 16.6945 6.55329 16.2644 6.04735 15.598C5.14391 15.1404 4.52436 14.2009 4.52436 13.116C4.52436 11.5816 5.7638 10.3375 7.29301 10.3375C7.586 10.3375 7.8684 10.3833 8.13329 10.4677V7.85266C4.84934 7.92075 2.20825 10.6136 2.20825 13.9254C2.20825 15.5787 2.86594 17.0774 3.93339 18.1724C4.89637 18.8214 6.05562 19.1998 7.30285 19.1998C10.6456 19.1998 13.3555 16.4803 13.3555 13.1256V6.41927H13.3554Z" fill="black"></path><path d="M17.9188 5.29817V4.59874C17.0623 4.60004 16.2226 4.35932 15.496 3.90411C16.1392 4.61089 16.9863 5.09822 17.9188 5.29817ZM13.4056 0.799986C13.3838 0.674926 13.367 0.549042 13.3554 0.422678V0H10.0617V13.1257C10.0564 14.6556 8.8191 15.8946 7.29303 15.8946C6.845 15.8946 6.42199 15.7879 6.04737 15.5983C6.55331 16.2645 7.35216 16.6946 8.25137 16.6946C9.77717 16.6946 11.0148 15.4558 11.0201 13.9256V0.799986H13.4056ZM8.13345 7.85284V7.10824C7.85823 7.07049 7.58076 7.05155 7.30294 7.05169C3.95993 7.05162 1.25 9.77116 1.25 13.1257C1.25 15.2288 2.31505 17.0822 3.93347 18.1725C2.86603 17.0775 2.20834 15.5787 2.20834 13.9255C2.20834 10.6138 4.84936 7.92093 8.13345 7.85284Z" fill="#00F2EA"></path></svg>