<svg class="h-5 w-5" viewBox="0 0 20 20" fill="none" xmlns="http://www.w3.org/2000/svg"><g clip-rule="url(#clip0_2157_21771)"><path d="M19.6017 5.1541C19.4886 4.72861 19.2657 4.34029 18.9554 4.02798C18.6451 3.71568 18.2582 3.49035 17.8335 3.37456C16.2698 2.9541 10.0198 2.9541 10.0198 2.9541C10.0198 2.9541 3.76984 2.9541 2.2062 3.37456C1.78144 3.49035 1.39455 3.71568 1.08424 4.02798C0.773933 4.34029 0.551091 4.72861 0.438018 5.1541C0.0198365 6.72456 0.0198364 9.99956 0.0198364 9.99956C0.0198364 9.99956 0.0198365 13.2746 0.438018 14.845C0.551091 15.2705 0.773933 15.6588 1.08424 15.9711C1.39455 16.2834 1.78144 16.5088 2.2062 16.6246C3.76984 17.045 10.0198 17.045 10.0198 17.045C10.0198 17.045 16.2698 17.045 17.8335 16.6246C18.2582 16.5088 18.6451 16.2834 18.9554 15.9711C19.2657 15.6588 19.4886 15.2705 19.6017 14.845C20.0198 13.2746 20.0198 9.99956 20.0198 9.99956C20.0198 9.99956 20.0198 6.72456 19.6017 5.1541Z" fill="#FF0302"></path><path d="M7.97446 12.9741V7.02637L13.2017 10.0002L7.97446 12.9741Z" fill="#FEFEFE"></path></g><defs><clipPath id="clip0_2157_21771"><rect width="20" height="20" fill="white"></rect></clipPath></defs></svg>